<?xml version="1.0" standalone="no"?><!DOCTYPE svg PUBLIC "-//W3C//DTD SVG 1.1//EN" "http://www.w3.org/Graphics/SVG/1.1/DTD/svg11.dtd"><svg class="icon" width="200px" height="200.00px" viewBox="0 0 1024 1024" version="1.1" xmlns="http://www.w3.org/2000/svg"><path d="M37.259947 512l0 474.740053 949.480107 0L986.740053 37.259947 37.259947 37.259947 37.259947 512 37.259947 512zM316.880213 153.572693c59.344213 19.462827 73.588053 45.574827 46.527147 85.4528-20.415147 29.907627-18.991787 31.330987 33.232213 29.907627l46.04928-1.42336 3.795627-21.364053c5.696853-33.232213 18.04288-40.82688 71.212373-44.62592 73.58464-5.2224 131.03104-11.86816 197.0176-22.787413 48.899413-8.06912 65.512107-9.02144 74.533547-4.747947 11.393707 4.747947 50.80064 61.242027 56.968533 80.704853 4.273493 12.82048-8.06912 41.304747-19.93728 47.950507-5.700267 2.84672-25.64096 5.2224-44.62592 5.2224-18.991787 0-66.46784 3.321173-105.867947 7.120213-38.929067 3.79904-75.96032 7.120213-82.13504 7.120213-12.817067 0-19.459413 13.294933-9.966933 19.46624 3.792213 2.372267 56.019627 4.273493 116.783787 4.273493l109.6704 0 12.3392 14.71488c6.64576 8.072533 12.342613 18.51392 12.342613 23.261867 0 16.616107-28.009813 149.070507-40.352427 192.269653-7.120213 23.261867-18.988373 58.395307-26.586453 77.387093-7.594667 19.459413-13.76256 37.505707-13.76256 40.352427 0.474453 9.02144 37.02784 34.18112 77.858133 53.64736 63.614293 30.85312 62.661973 52.220587-5.2224 123.907413-9.02144 9.49248-19.46624 15.663787-26.112 15.663787-13.765973 0-54.1184-25.15968-101.12-63.13984l-33.2288-26.586453-23.73632 22.31296c-29.433173 28.484267-72.16128 60.770987-87.825067 66.464427-16.141653 6.17472-31.80544-0.474453-56.019627-24.210773l-20.8896-19.940693-7.594667 11.393707c-17.09056 25.163093-23.26528 29.436587-41.7792 32.283307-16.616107 1.901227-24.685227 0-50.322773-14.721707-36.553387-20.40832-47.947093-31.330987-47.47264-47.947093 0-14.24384 5.2224-22.787413 43.20256-67.887787 15.663787-18.988373 28.95872-37.98016 28.95872-41.772373 0-8.5504-28.95872 21.36064-76.909227 77.85472-18.51392 21.835093-38.454613 41.7792-44.151467 44.62592-20.886187 9.49248-42.724693 0.945493-68.836693-28.013227-37.98016-41.772373-39.40352-50.31936-13.765973-90.671787l13.765973-21.838507 0-197.48864-13.765973 0c-10.919253 0-21.364053-7.120213-43.677013-28.0064-38.454613-36.082347-39.40352-47.0016-7.120213-94.948693 28.484267-42.728107 54.592853-99.222187 74.059093-160.938667 11.86816-37.02784 18.988373-51.746133 29.433173-60.289707C269.407573 138.8544 271.305387 138.8544 316.880213 153.572693zM273.206613 183.005867c-1.42336 2.372267-9.970347 26.586453-18.991787 54.114987-17.565013 52.224-53.643947 128.65536-78.80704 165.686613l-14.71488 21.36064 19.93728 18.04288c10.919253 9.966933 21.838507 17.09056 24.68864 16.141653 3.321173-1.426773 18.039467-24.68864 32.75776-52.224l27.531947-50.322773 57.920853-1.42336c31.80544-0.948907 59.3408-0.948907 61.238613 0 1.901227 0.474453-1.897813 15.6672-8.06912 33.706667-6.64576 18.039467-11.86816 34.655573-11.86816 37.505707 0 6.171307 43.677013 21.36064 47.947093 16.616107 3.79904-4.273493 31.3344-95.8976 35.607893-119.159467l3.321173-15.192747-79.281493 0c-43.199147 0-78.80704-1.897813-78.80704-3.79904 0-8.06912 24.68864-64.088747 35.607893-81.65376 13.29152-20.8896 13.29152-20.415147-24.214187-33.232213C273.681067 178.25792 275.57888 178.732373 273.206613 183.005867L273.206613 183.005867zM735.126187 212.913493c-32.754347 7.594667-170.43456 23.73632-203.185493 23.73632-18.517333 0-36.082347 0.948907-39.881387 2.37568-5.218987 1.897813-5.696853 28.009813-4.27008 139.096747 2.84672 239.745707-14.24384 318.078293-90.200747 407.323307-15.192747 18.046293-28.009813 34.184533-28.009813 36.08576 0 4.747947 45.100373 27.531947 53.169493 27.531947 6.171307-0.474453 30.859947-36.078933 57.442987-82.60608 15.192747-26.586453 34.658987-81.65376 41.304747-117.732693 8.543573-45.103787 19.462827-148.1216 18.988373-179.456-0.95232-44.148053-0.95232-43.6736 10.441387-41.775787 9.499307 1.42336 11.39712 7.594667 23.26528 77.858133 14.240427 85.4528 20.886187 112.039253 41.772373 162.362027l14.24384 34.655573-30.38208 30.378667c-17.087147 16.616107-46.527147 38.929067-66.464427 49.84832-19.462827 10.919253-35.607893 20.893013-35.607893 21.838507 0 1.42336 9.970347 12.82048 22.309547 25.634133l22.31296 22.787413 28.48768-21.36064c16.141653-11.871573 44.62592-37.031253 63.143253-55.54176l34.655573-33.2288 29.433173 28.955307c16.612693 15.6672 45.574827 40.349013 65.037653 54.121813l35.13344 25.15968 7.594667-11.39712c4.276907-6.642347 13.29152-18.51392 20.8896-26.58304 7.120213-8.072533 12.817067-16.141653 12.817067-18.039467 0-1.426773-13.29152-9.024853-29.42976-16.141653-34.184533-15.6672-85.4528-52.220587-96.372053-68.836693-6.64576-10.448213-6.17472-13.294933 9.018027-46.523733 9.024853-19.46624 22.790827-55.545173 30.38208-80.704853 17.565013-54.59968 45.57824-187.05408 41.7792-196.54656-1.901227-6.171307-22.31296-7.123627-128.65536-7.123627l-125.801813 0L540.48768 289.82272l63.136427-5.2224c34.184533-3.324587 80.704853-7.59808 103.017813-9.970347 22.31296-2.84672 54.59968-4.747947 72.639147-4.747947 17.565013 0 31.80544-1.42336 31.80544-3.321173 0-1.426773-8.072533-15.6672-17.565013-30.859947C774.05184 206.267733 770.259627 204.844373 735.126187 212.913493zM733.228373 450.28352c-8.54016 65.04448-50.793813 194.64192-63.13984 194.64192-14.240427 0-46.045867-111.5648-52.220587-182.77376l-2.84672-35.60448 121.531733 0L733.228373 450.28352zM657.74592 467.848533c-3.79904 6.171307 8.065707 68.836693 13.29152 69.789013 5.2224 0.477867 22.31296-62.6688 18.517333-68.840107C686.708053 463.57504 660.59264 463.100587 657.74592 467.848533zM287.44704 397.114027c-9.966933 10.919253-6.171307 15.189333 13.294933 15.189333 8.06912 0 17.09056 2.37568 19.93728 5.2224 4.273493 4.273493 6.64576 2.37568 8.546987-6.64576 1.897813-6.64576 1.897813-14.71488 0-17.09056C324.478293 385.245867 295.994027 387.618133 287.44704 397.114027zM253.26592 448.385707c-3.321173 0.948907-4.273493 44.62592-2.84672 122.95168 1.42336 129.129813 0 142.42816-23.73632 172.332373l-9.02144 11.86816 19.93728 21.838507c11.393707 11.86816 22.787413 21.838507 25.637547 21.838507 3.324587 0 22.31296-19.46624 42.25024-42.73152 20.415147-23.73632 50.797227-56.968533 67.887787-74.533547l30.859947-31.330987-13.765973-21.838507c-7.59808-11.86816-15.6672-21.838507-18.517333-21.838507-2.372267 0.477867-18.51392 18.039467-35.60448 39.406933l-30.859947 38.925653-2.372267-118.685013-2.372267-118.685013-21.364053-0.95232C267.50976 446.48448 255.6416 446.958933 253.26592 448.385707zM441.739947 464.52736c-10.919253 18.039467-27.53536 20.411733-63.143253 9.49248-17.565013-5.2224-33.2288-9.49248-34.655573-9.49248-1.42336 0-2.84672 25.634133-2.84672 56.968533 0 51.74272 3.321173 65.98656 11.86816 52.220587 3.79904-6.171307 28.95872-6.171307 40.352427 0 5.2224 2.84672 15.6672 14.240427 23.73632 26.108587 8.072533 11.871573 16.616107 21.364053 18.51392 21.364053 5.696853 0 15.6672-100.642133 13.769387-136.72448C447.911253 457.878187 447.4368 455.980373 441.739947 464.52736L441.739947 464.52736zM557.574827 656.797013c-1.897813 11.871573-7.594667 33.706667-11.86816 47.947093-4.747947 14.24384-7.120213 26.586453-5.218987 28.009813 1.8944 0.948907 12.3392-7.120213 23.258453-18.51392l20.411733-20.8896-7.59808-23.261867C564.220587 634.0096 560.899413 631.63392 557.574827 656.797013z" fill="#1296db" /></svg>